<?xml version="1.0" encoding="utf-8"?>
<!-- Generator: Adobe Illustrator 24.0.1, SVG Export Plug-In . SVG Version: 6.00 Build 0)  -->
<svg version="1.1" id="Layer_1" xmlns="http://www.w3.org/2000/svg" xmlns:xlink="http://www.w3.org/1999/xlink" x="0px" y="0px"
	 viewBox="0 0 250 50" style="enable-background:new 0 0 250 50;" xml:space="preserve">
<style type="text/css">
	.st0{fill:none;}
	.st1{fill:#FFC633;}
	.st2{fill:#5D42AF;}
</style>
<rect class="st0" width="250" height="50"/>
<g>
	<path class="st1" d="M107.3,22l-3.6,16.6h-9.4L97.9,22c0.3-1.3,0.1-1.5-1.2-1.5h-3.4c-1.3,0-1.6,0.2-1.9,1.5c0,0,0,0,0,0l-3.6,16.6
		h-9.4L81.9,22c0.3-1.3,0.1-1.5-1.2-1.5h-3.4c-1.3,0-1.6,0.2-1.9,1.5l-3.6,16.6h-9.4l5.6-25.5h7.7l1.2,2.2c0.7-0.7,1.5-1.3,2.5-1.7
		c0.9-0.4,1.9-0.6,3-0.5h2c3.7,0,6.2,1.6,7.1,4.2c1.6-2.9,4-4.2,6.9-4.2h2C105.7,13.1,108.5,16.6,107.3,22z"/>
	<path class="st1" d="M136.1,22l-1.7,7.7c-1.2,5.4-5.5,8.9-11.1,8.9h-7.1c-5.5,0-8.4-3.5-7.2-8.9l1.7-7.7c1.2-5.4,5.5-8.9,11.1-8.9
		h7.2C134.4,13.1,137.3,16.6,136.1,22z M126.6,22c0.3-1.3,0.1-1.5-1.2-1.5H122c-1.3,0-1.6,0.2-1.9,1.5l-1.7,7.7
		c-0.3,1.3-0.1,1.5,1.2,1.5h3.4c1.3,0,1.6-0.2,1.9-1.5L126.6,22z"/>
	<path class="st1" d="M195,20c-0.3,1.5-1.2,2.7-2.4,3.7l-4.8,3.9c-1.2,0.9-2.6,1.5-4.1,1.5H177l-0.1,0.7c-0.3,1.3-0.1,1.5,1.2,1.5
		h14.4l-1.6,7.4h-16.3c-5.5,0-8.4-3.5-7.2-8.9l1.7-7.7c1.2-5.4,5.5-8.9,11.1-8.9h7.2C192.9,13.1,195.7,16.5,195,20z M185.1,22
		c0.3-1.3,0.1-1.5-1.2-1.5h-3.4c-1.3,0-1.6,0.2-1.9,1.5l-0.6,2.7h5.6c0.3,0,0.5-0.1,0.7-0.3c0.2-0.2,0.3-0.4,0.4-0.6L185.1,22z"/>
	<path class="st2" d="M205.6,34.3c-0.5,2.4-2.5,4.3-5.4,4.3c-2.9,0-4-1.9-3.5-4.3c0.5-2.4,2.5-4.3,5.4-4.3
		C205,30,206.1,31.9,205.6,34.3z"/>
	<path class="st1" d="M225.8,13.1l-1.6,7.3l-4,18.2h-9.4l4-18.2h-4.7l1.6-7.4L225.8,13.1z M218.8,8.4c-1.6-1.8-1.1-4.8,1.1-6.8
		c2.2-2,5.4-2.1,7-0.4c1.6,1.8,1.1,4.8-1.1,6.8C223.6,10,220.5,10.2,218.8,8.4z"/>
	<path class="st1" d="M241,16.8l-2.8,13c-0.3,1.3-0.1,1.5,1.2,1.5h5.9l-1.6,7.4h-7.7c-5.5,0-8.4-3.5-7.2-8.9l2.8-13H228l1.6-7.4h3.6
		l1.3-6h9.4l-1.3,6h7.4l-1.6,7.4H241z"/>
	<path class="st1" d="M25.5,3.7h12L27.5,50h-12L25.5,3.7z"/>
	<path class="st1" d="M43.1,3.7h12L47.3,40h-12L43.1,3.7z"/>
	<path class="st1" d="M7.8,3.7h12L12,40H0L7.8,3.7z"/>
	<path class="st1" d="M171,13.1l-17.5,25.5h-9.7l-6.4-25.5h10.3l2.8,16.8l10.1-16.8L171,13.1z"/>
</g>
</svg>
