<?xml version="1.0" encoding="utf-8"?>
<!-- Generator: Adobe Illustrator 24.0.1, SVG Export Plug-In . SVG Version: 6.00 Build 0)  -->
<svg version="1.1" id="Layer_1" xmlns="http://www.w3.org/2000/svg" xmlns:xlink="http://www.w3.org/1999/xlink" x="0px" y="0px"
	 viewBox="0 0 140 112" style="enable-background:new 0 0 140 112;" xml:space="preserve">
<style type="text/css">
	.st0{fill:#606060;}
	.st1{fill:#4D4D4D;}
	.st2{fill:#FFBB29;}
	.st3{fill:#FFC633;}
	.st4{fill:#FFD3C0;}
	.st5{fill:#FFB9A1;}
	.st6{fill:#432F79;}
	.st7{fill:#5D42AF;}
	.st8{fill:#F9F9FB;}
	.st9{fill:#DFDFE8;}
</style>
<path class="st0" d="M113.1,24v13.7c0,1.1-0.9,2.1-2.1,2.1H95c-1.1,0-2.1-0.9-2.1-2.1V24c0-1.1,0.9-2.1,2.1-2.1h16.1
	C112.2,21.9,113.1,22.8,113.1,24z"/>
<path class="st0" d="M9.8,21.9H2.1C0.9,21.9,0,22.8,0,24v13.7c0,1.1,0.9,2.1,2.1,2.1h7.7c1.1,0,2.1-0.9,2.1-2.1V24
	C11.8,22.8,10.9,21.9,9.8,21.9z"/>
<path class="st0" d="M140,24v13.7c0,1.1-0.9,2.1-2.1,2.1h-7.7c-1.1,0-2.1-0.9-2.1-2.1V24c0-1.1,0.9-2.1,2.1-2.1h7.7
	C139.1,21.9,140,22.8,140,24z"/>
<path class="st1" d="M140,31.1v6.7c0,1.1-0.9,2.1-2.1,2.1h-7.7c-1.1,0-2.1-0.9-2.1-2.1v-6.7c0,1.1,0.9,2.1,2.1,2.1h7.7
	C139.1,33.1,140,32.2,140,31.1z"/>
<path class="st1" d="M11.8,31.1v6.7c0,1.1-0.9,2.1-2.1,2.1H2.1C1,39.9,0,39,0,37.8v-6.7c0,1.1,0.9,2.1,2.1,2.1h7.7
	C10.9,33.1,11.8,32.2,11.8,31.1z"/>
<path class="st1" d="M113.1,33.1v4.6c0,1.1-0.9,2.1-2.1,2.1H95c-1.1,0-2.1-0.9-2.1-2.1v-4.6H113.1z"/>
<path class="st2" d="M18.7,13v35.6c0,1.5-0.6,2.9-1.6,3.9s-2.4,1.6-3.9,1.6c-1,0-1.9-0.3-2.7-0.7c-1.6-0.9-2.7-2.7-2.7-4.8V13
	c0-2,1.1-3.8,2.7-4.8c0.8-0.5,1.7-0.7,2.7-0.7C16.2,7.6,18.7,10,18.7,13z"/>
<path class="st3" d="M18.7,13v35.6c0,1.5-0.6,2.9-1.6,3.9s-2.4,1.6-3.9,1.6c-1,0-1.9-0.3-2.7-0.7c0.4-0.2,0.8-0.5,1.1-0.9
	c1-1,1.6-2.4,1.6-3.9V13c0-2-1.1-3.8-2.7-4.8c0.8-0.5,1.7-0.7,2.7-0.7C16.2,7.6,18.7,10,18.7,13z"/>
<path class="st2" d="M132.3,13v35.6c0,1.5-0.6,2.9-1.6,3.9s-2.4,1.6-3.9,1.6c-1,0-1.9-0.3-2.7-0.7c-1.6-0.9-2.7-2.7-2.7-4.8V13
	c0-2,1.1-3.8,2.7-4.8c0.8-0.5,1.7-0.7,2.7-0.7C129.8,7.6,132.3,10,132.3,13z"/>
<path class="st3" d="M132.3,13v35.6c0,1.5-0.6,2.9-1.6,3.9s-2.4,1.6-3.9,1.6c-1,0-1.9-0.3-2.7-0.7c0.4-0.2,0.8-0.5,1.1-0.9
	c1-1,1.6-2.4,1.6-3.9V13c0-2-1.1-3.8-2.7-4.8c0.8-0.5,1.7-0.7,2.7-0.7C129.8,7.6,132.3,10,132.3,13z"/>
<path class="st4" d="M97.1,23.8v13.9c0,0.5-0.2,0.9-0.4,1.3L85.9,53l3.2,33.5c0.1,0.6-0.1,1.2-0.5,1.6s-0.9,0.7-1.5,0.7H52.9
	c-0.6,0-1.1-0.2-1.5-0.7c-0.4-0.4-0.6-1-0.5-1.6l0.6-6.1l0.1-1.1l2.5-26l-10.3-8c-0.5-0.4-0.8-1-0.8-1.6V15.9c0-1.1,0.9-2.1,2.1-2.1
	h42.1C92.6,13.8,97.1,18.3,97.1,23.8z"/>
<path class="st5" d="M97.1,23.8v13.9c0,0.5-0.2,0.9-0.4,1.3L85.9,53l3.2,33.5c0.1,0.6-0.1,1.2-0.5,1.6s-0.9,0.7-1.5,0.7H52.9
	c-0.6,0-1.1-0.2-1.5-0.7c-0.4-0.4-0.6-1-0.5-1.6l0.6-6.1l0.1-1.1h28.1c0.6,0,1.1-0.2,1.5-0.7c0.4-0.4,0.6-1,0.5-1.6l-2.1-24.2
	l11.8-15.6c0.3-0.4,0.4-0.8,0.4-1.3V22c0-3.4-3.3-6.4-5.9-8.2h1.2C92.6,13.8,97.1,18.3,97.1,23.8z"/>
<path class="st0" d="M85.8,24v7.4c0,0.4-0.1,0.8-0.3,1.1l-0.4,0.6l-3.7,5.7c-0.4,0.6-1,0.9-1.7,0.9H28.9c-1.1,0-2.1-0.9-2.1-2.1V24
	c0-0.6,0.2-1.1,0.6-1.5s0.9-0.6,1.5-0.6h54.9C84.9,21.9,85.8,22.9,85.8,24z"/>
<path class="st1" d="M26.9,33.1h58.3l-3.7,5.7c-0.4,0.6-1,0.9-1.7,0.9H28.9c-1.1,0-2.1-0.9-2.1-2.1v-4.5H26.9z"/>
<path class="st6" d="M31,6.2v49.4c0,3.4-2.8,6.2-6.1,6.2c-1.1,0-2.2-0.3-3.1-0.8c-1.8-1.1-3.1-3.1-3.1-5.3V6.2
	c0-2.3,1.2-4.3,3.1-5.3c0.9-0.5,2-0.8,3.1-0.8C28.2,0,31,2.8,31,6.2z"/>
<path class="st7" d="M31,6.2v49.4c0,3.4-2.8,6.2-6.1,6.2c-1.1,0-2.2-0.3-3.1-0.8c1.8-1.1,3.1-3.1,3.1-5.3V6.2c0-2.3-1.2-4.3-3.1-5.3
	c0.9-0.5,2-0.8,3.1-0.8C28.2,0,31,2.8,31,6.2z"/>
<path class="st6" d="M121.3,6.2v49.4c0,3.4-2.8,6.2-6.1,6.2c-1.1,0-2.2-0.3-3.1-0.8c-1.8-1.1-3.1-3.1-3.1-5.3V6.2
	c0-2.3,1.2-4.3,3.1-5.3c0.9-0.5,2-0.8,3.1-0.8C118.6,0,121.3,2.8,121.3,6.2z"/>
<path class="st7" d="M121.3,6.2v49.4c0,3.4-2.8,6.2-6.1,6.2c-1.1,0-2.2-0.3-3.1-0.8c1.8-1.1,3.1-3.1,3.1-5.3V6.2
	c0-2.3-1.2-4.3-3.1-5.3c0.9-0.5,2-0.8,3.1-0.8C118.6,0,121.3,2.8,121.3,6.2z"/>
<path class="st4" d="M48.3,8.4c-3,0-5.4,2.4-5.4,5.4v11.9c0,3,2.4,5.4,5.4,5.4s5.4-2.4,5.4-5.4V13.8C53.7,10.8,51.3,8.4,48.3,8.4z"
	/>
<path class="st5" d="M59,8.4c-3,0-5.4,2.4-5.4,5.4v11.9c0,3,2.4,5.4,5.4,5.4s5.4-2.4,5.4-5.4V13.8C64.4,10.8,62,8.4,59,8.4z"/>
<path class="st4" d="M69.7,8.4c-3,0-5.4,2.4-5.4,5.4v11.9c0,3,2.4,5.4,5.4,5.4s5.4-2.4,5.4-5.4V13.8C75.1,10.8,72.7,8.4,69.7,8.4z"
	/>
<path class="st5" d="M80.5,8.4c-3,0-5.4,2.4-5.4,5.4v11.9c0,3,2.4,5.4,5.4,5.4s5.4-2.4,5.4-5.4V13.8C85.8,10.8,83.4,8.4,80.5,8.4z"
	/>
<path class="st8" d="M97.7,111.3c-0.4,0.4-0.9,0.7-1.5,0.7H43.9c-0.6,0-1.1-0.3-1.5-0.7c-0.4-0.4-0.6-1-0.5-1.6l0.6-4.8l2.2-18.4
	c0.1-1,1-1.8,2-1.8h46.8c1,0,1.9,0.8,2,1.8l2.7,23.2C98.2,110.3,98,110.9,97.7,111.3z"/>
<path class="st9" d="M97.7,111.3c-0.4,0.4-0.9,0.7-1.5,0.7H43.9c-0.6,0-1.1-0.3-1.5-0.7c-0.4-0.4-0.6-1-0.5-1.6l0.6-4.8H88
	c0.6,0,1.1-0.3,1.5-0.7c0.4-0.4,0.6-1,0.5-1.6l-1.8-16.1c-0.1-1-1-1.8-2-1.8h7.3c1,0,1.9,0.8,2,1.8l2.7,23.2
	C98.2,110.3,98,110.9,97.7,111.3z"/>
</svg>
