<?xml version="1.0" encoding="utf-8"?>
<!-- Generator: Adobe Illustrator 24.0.1, SVG Export Plug-In . SVG Version: 6.00 Build 0)  -->
<svg version="1.1" id="OBJECTS" xmlns="http://www.w3.org/2000/svg" xmlns:xlink="http://www.w3.org/1999/xlink" x="0px" y="0px"
	 viewBox="0 0 100 100" style="enable-background:new 0 0 100 100;" xml:space="preserve">
<style type="text/css">
	.st0{fill:#FFC633;}
	.st1{fill:#5D42AF;}
	.st2{fill:#5D42AF;stroke:#5D42AF;stroke-width:1.1491;stroke-linecap:round;stroke-linejoin:round;stroke-miterlimit:10;}
	.st3{fill:#F9F9FB;stroke:#5D42AF;stroke-width:1.1298;stroke-linecap:round;stroke-linejoin:round;stroke-miterlimit:10;}
	.st4{fill:none;stroke:#5D42AF;stroke-width:1.1491;stroke-miterlimit:10;}
	.st5{fill:#F9F9FB;stroke:#5D42AF;stroke-width:1.1298;stroke-miterlimit:10;}
	.st6{fill:none;stroke:#5D42AF;stroke-width:1.0878;stroke-linecap:round;stroke-linejoin:round;stroke-miterlimit:10;}
	.st7{fill:#F9F9FB;stroke:#5D42AF;stroke-width:1.1491;stroke-miterlimit:10;}
	.st8{fill:none;stroke:#5D42AF;stroke-width:0.5745;stroke-linecap:round;stroke-linejoin:round;stroke-miterlimit:10;}
</style>
<rect class="st0" width="100" height="100"/>
<g>
	<g>
		<path class="st1" d="M75.3,38.4c-3.1-3.7-5.6-7.9-7.7-13.9c-2.3-6.4-9.7-3.8-9.7-3.8s-6.2-8-15.5-5.2c-9.3,2.8-12.6,9.4-12.8,17.3
			c-0.2,7.9-6.4,9.1-11.2,18.3C9.9,67.2,24.1,80.8,50,77l0-0.3c2.5,0.8,5.7,1.1,9.5,0.9C90.7,75.8,87.7,52.9,75.3,38.4z"/>
		<g>
			<path class="st2" d="M30.9,77.7c0,0-17.1,8.6-17.1,23.4h34.9h3.2h34.3c0-14.8-17.7-23.4-17.7-23.4"/>
			<g>
				<path class="st3" d="M42.6,61.9v9.9c0,0-3.2,4.5-11.7,6c0,0,5.1,3.3,19.2,3.3c9.8,0,18.4-3.3,18.4-3.3s-10.9-2.3-11.7-6v-9.9"/>
				<path class="st4" d="M35.4,76.5c0,0,13,3.8,28.7,0"/>
				<path class="st1" d="M42.9,62.3c0,0,2.9,6.6,8.9,6.2c0,0,4.3,0,5.3-4.3l-0.4-1.9C56.7,62.3,51.3,66.1,42.9,62.3z"/>
			</g>
		</g>
	</g>
	<g>
		<path class="st5" d="M64.9,36.6c0,0,1.9,27.3-15.2,27.3c-17.1,0-15.7-27.3-15.7-27.3s-0.8-16.2,16.3-16.2
			C66.2,20.4,64.9,36.6,64.9,36.6z"/>
		<g>
			<path class="st6" d="M48.7,44.9v2.6c0,0.2,0,0.4,0.1,0.5c0.3,0.6,1,0.9,1.6,0.8l0.8-0.2"/>
			<circle class="st1" cx="43.3" cy="41.6" r="1.4"/>
			<circle class="st1" cx="56.5" cy="41.6" r="1.4"/>
			<path class="st6" d="M45.1,51.7c0,0,2.1,1.3,5,1.3c2.8,0,5-1.3,5-1.3"/>
			<path class="st1" d="M46.7,35.4c-0.1,0.1-0.4,1.9-0.4,1.9l-7.8,0.8l1.9-1.3c0.5-0.3,1-0.5,1.6-0.6L46.7,35.4z"/>
			<path class="st1" d="M52.2,35.4c0.1,0.1,0.4,1.9,0.4,1.9l7.8,0.8l-1.9-1.3c-0.5-0.3-1-0.5-1.6-0.6L52.2,35.4z"/>
		</g>
		<g>
			<path class="st7" d="M63.7,50.4c1.2,1.6,3.4,0.5,4.7-1.5c1.3-2.1,1.9-6.2,0-7.3c-1.9-1.1-3.5,1.2-3.5,1.2s-0.5,4.2-0.8,5.7
				L63.7,50.4z"/>
			<g>
				<g>
					<path class="st8" d="M64.4,46.6c1.5-3.1,3.8-2.4,3.8-2.4"/>
				</g>
				<path class="st8" d="M65.6,45.1c0,0,2.3,1.2,0.8,3.1"/>
			</g>
		</g>
		<g>
			<path class="st7" d="M35.4,50.4C34.2,52,32,51,30.7,48.9c-1.3-2.1-1.9-6.2,0-7.3c1.9-1.1,3.5,1.2,3.5,1.2s0.5,4.2,0.8,5.7
				L35.4,50.4z"/>
			<g>
				<g>
					<path class="st8" d="M34.7,46.6c-1.5-3.1-3.8-2.4-3.8-2.4"/>
				</g>
				<path class="st8" d="M33.5,45.1c0,0-2.3,1.2-0.8,3.1"/>
			</g>
		</g>
		<path class="st1" d="M64.9,35.3c0-1.3-0.2-3.3-0.8-5.1c-0.1-0.5-0.2-0.9-0.4-1.3l0.8,0.2c-0.6-4.4-10.5-15.2-22.9-9
			c-12.4,6.2-7.7,22.6-7.7,22.6l0.1-0.8c0.5-0.7,2.7-3.9,3.4-8c8.6,1.4,15.2-3.4,18.6-6.8c0.5,1.7,1.8,5.2,5.4,7.8
			c1.1,4.7,3.4,7.5,3.4,7.5C65.1,39.7,65.1,37.4,64.9,35.3z"/>
	</g>
</g>
</svg>
