<?xml version="1.0" encoding="utf-8"?>
<!-- Generator: Adobe Illustrator 24.0.1, SVG Export Plug-In . SVG Version: 6.00 Build 0)  -->
<svg version="1.1" id="Layer_1" xmlns="http://www.w3.org/2000/svg" xmlns:xlink="http://www.w3.org/1999/xlink" x="0px" y="0px"
	 viewBox="0 0 16 16" style="enable-background:new 0 0 16 16;" xml:space="preserve">
<style type="text/css">
	.st0{fill:#FFC633;}
</style>
<path class="st0" d="M11.5,8.7v6.6h-7V8.7H1.7l6.3-8l6.3,8H11.5z"/>
<path class="st0" d="M14.3,9.4c-0.2,0-0.4-0.1-0.5-0.3L8,1.9L2.2,9.2C2,9.5,1.6,9.5,1.3,9.3C1,9,0.9,8.6,1.2,8.3l6.3-8
	c0.3-0.3,0.8-0.3,1.1,0l6.3,8c0.2,0.3,0.2,0.8-0.1,1C14.6,9.4,14.5,9.4,14.3,9.4z"/>
<path class="st0" d="M4.5,16c-0.4,0-0.7-0.3-0.7-0.7V8.7C3.8,8.3,4.1,8,4.5,8c0.4,0,0.7,0.3,0.7,0.7v6.6C5.2,15.7,4.9,16,4.5,16z"/>
<path class="st0" d="M11.5,16h-7c-0.4,0-0.7-0.3-0.7-0.7c0-0.4,0.3-0.7,0.7-0.7h7c0.4,0,0.7,0.3,0.7,0.7C12.2,15.7,11.9,16,11.5,16z
	"/>
<path class="st0" d="M11.5,16c-0.4,0-0.7-0.3-0.7-0.7V8.7c0-0.4,0.3-0.7,0.7-0.7s0.7,0.3,0.7,0.7v6.6C12.2,15.7,11.9,16,11.5,16z"/>
<path class="st0" d="M4.5,9.4H1.7C1.3,9.4,1,9.1,1,8.7C1,8.3,1.3,8,1.7,8h2.8c0.4,0,0.7,0.3,0.7,0.7C5.2,9.1,4.9,9.4,4.5,9.4z"/>
<path class="st0" d="M14.3,9.4h-2.8c-0.4,0-0.7-0.3-0.7-0.7c0-0.4,0.3-0.7,0.7-0.7h2.8C14.7,8,15,8.3,15,8.7
	C15,9.1,14.7,9.4,14.3,9.4z"/>
</svg>
