<?xml version="1.0" encoding="utf-8"?>
<!-- Generator: Adobe Illustrator 24.0.1, SVG Export Plug-In . SVG Version: 6.00 Build 0)  -->
<svg version="1.1" id="Layer_1" xmlns="http://www.w3.org/2000/svg" xmlns:xlink="http://www.w3.org/1999/xlink" x="0px" y="0px"
	 viewBox="0 0 59 80" style="enable-background:new 0 0 59 80;" xml:space="preserve">
<style type="text/css">
	.st0{fill:#FFC633;}
	.st1{fill:#FFBB29;}
</style>
<path class="st0" d="M43.3,33.5v24.9H15.1V33.5H3.9L29.2,3l25.4,30.5H43.3z"/>
<path class="st0" d="M55.6,36.3c-0.8,0-1.7-0.3-2.3-1L29.3,7.2L5.2,35.3c-1,1.2-2.9,1.4-4.1,0.4c-1.3-1-1.4-2.7-0.4-3.9L27,1
	c1.1-1.3,3.4-1.3,4.5,0l26.4,30.8c1,1.2,0.8,3-0.4,3.9C56.9,36.1,56.3,36.3,55.6,36.3z"/>
<path class="st0" d="M14.6,61.5c-1.6,0-2.9-1.3-2.9-2.8V33.5c0-1.5,1.3-2.8,2.9-2.8s2.9,1.3,2.9,2.8v25.2
	C17.6,60.2,16.3,61.5,14.6,61.5z"/>
<path class="st0" d="M43.9,61.5H14.6c-1.6,0-2.9-1.3-2.9-2.8s1.3-2.8,2.9-2.8h29.3c1.6,0,2.9,1.3,2.9,2.8S45.5,61.5,43.9,61.5z"/>
<path class="st0" d="M43.9,61.5c-1.6,0-2.9-1.3-2.9-2.8V33.5c0-1.5,1.3-2.8,2.9-2.8s2.9,1.3,2.9,2.8v25.2
	C46.8,60.2,45.5,61.5,43.9,61.5z"/>
<path class="st0" d="M14.6,36.3H2.9c-1.6,0-2.9-1.3-2.9-2.8c0-1.5,1.3-2.8,2.9-2.8h11.7c1.6,0,2.9,1.3,2.9,2.8
	C17.6,35.1,16.3,36.3,14.6,36.3z"/>
<path class="st0" d="M55.6,36.3H43.9c-1.6,0-2.9-1.3-2.9-2.8c0-1.5,1.3-2.8,2.9-2.8h11.7c1.6,0,2.9,1.3,2.9,2.8
	C58.6,35.1,57.3,36.3,55.6,36.3z"/>
<path class="st1" d="M34.9,39.2H23.6c-1.6,0-2.8-1.3-2.8-2.9s1.3-2.9,2.8-2.9h11.3c1.6,0,2.8,1.3,2.8,2.9S36.4,39.2,34.9,39.2z"/>
<path class="st1" d="M29.2,44.9c-1.6,0-2.8-1.3-2.8-2.9V30.6c0-1.6,1.3-2.9,2.8-2.9c1.6,0,2.8,1.3,2.8,2.9v11.4
	C32.1,43.6,30.8,44.9,29.2,44.9z"/>
<path class="st0" d="M14.5,65.2h29.6c1.5,0,2.8,1.3,2.8,2.8l0,0c0,1.5-1.3,2.8-2.8,2.8H14.5c-1.5,0-2.8-1.3-2.8-2.8l0,0
	C11.7,66.4,12.9,65.2,14.5,65.2z"/>
<path class="st0" d="M14.5,74.4h29.6c1.5,0,2.8,1.3,2.8,2.8l0,0c0,1.5-1.3,2.8-2.8,2.8H14.5c-1.5,0-2.8-1.3-2.8-2.8l0,0
	C11.7,75.7,12.9,74.4,14.5,74.4z"/>
</svg>
